<?xml version="1.0" encoding="UTF-8"?>
<!-- Created with Inkscape (http://www.inkscape.org/) -->
<svg width="16" height="16" version="1.1" viewBox="0 0 4.2333 4.2333" xmlns="http://www.w3.org/2000/svg">
 <path d="m2.0097 4.2159c-0.42127-0.022534-0.82182-0.16802-1.1562-0.41997-0.16543-0.12463-0.31758-0.27959-0.44-0.44811-0.39039-0.53739-0.50217-1.2412-0.29775-1.8749 0.10655-0.33027 0.2826-0.6136 0.53455-0.8603 0.20436-0.2001 0.4375-0.35089 0.70302-0.45469 0.63169-0.24694 1.3515-0.17114 1.9183 0.20202 0.18247 0.12012 0.35537 0.27852 0.49364 0.45226 0.36843 0.46291 0.52195 1.0625 0.42372 1.6549-0.13545 0.81683-0.75243 1.4853-1.5572 1.6872-0.20026 0.050239-0.42228 0.072187-0.62209 0.061499zm0.2896-0.4882c0.20103-0.02409 0.37579-0.076572 0.5513-0.16556 0.45651-0.23147 0.78022-0.6705 0.86429-1.1722 0.017413-0.10392 0.021372-0.15456 0.021372-0.27341 0-0.11886-0.00395-0.16949-0.021372-0.27341-0.11289-0.67372-0.65031-1.2113-1.324-1.3245-0.10282-0.017267-0.15879-0.021702-0.27392-0.021702-0.11498 0-0.17112 0.004436-0.27341 0.021616-0.67396 0.11318-1.2116 0.65064-1.3244 1.324-0.017504 0.10445-0.021458 0.15492-0.021458 0.27392 0 0.119 0.003955 0.16947 0.021458 0.27392 0.10553 0.62969 0.5845 1.1459 1.2053 1.2989 0.095716 0.023595 0.17197 0.035453 0.29818 0.04637 0.04161 0.0036 0.22392-0.00167 0.27672-8e-3zm-0.7749-0.75022c-0.00854-0.00319-0.022051-0.00988-0.030032-0.014856-0.025458-0.015875-0.22078-0.21584-0.23128-0.23677-0.013162-0.026249-0.015755-0.064796-0.00652-0.096968 0.00727-0.025334 0.00824-0.026374 0.25039-0.26894l0.24309-0.24351-0.23874-0.23915c-0.16844-0.16873-0.24157-0.24483-0.24836-0.25845-0.014382-0.02887-0.015913-0.068529-0.00388-0.10082 0.00879-0.023628 0.01838-0.0346 0.11672-0.13364 0.071461-0.07197 0.11429-0.11179 0.12862-0.11959 0.028312-0.015409 0.065501-0.018627 0.10019-0.00867 0.025334 0.00728 0.026375 0.00824 0.26891 0.25035l0.24347 0.24305 0.24347-0.24288c0.22963-0.22907 0.24479-0.24331 0.26657-0.25036 0.030159-0.00977 0.072544-0.00707 0.099176 0.00629 0.026805 0.01345 0.22686 0.21264 0.24259 0.24153 0.015546 0.028563 0.018657 0.066201 0.00829 0.10032-0.00751 0.024733-0.011629 0.029148-0.25037 0.26862l-0.24273 0.24347 0.24305 0.24347c0.24211 0.24253 0.24308 0.24357 0.25035 0.26891 0.00993 0.034612 0.00674 0.071888-0.00859 0.10003-0.015678 0.028807-0.21578 0.22809-0.24246 0.24146-0.026701 0.013387-0.065505 0.015871-0.097254 0.00622-0.024733-0.00751-0.029148-0.011629-0.26864-0.25039l-0.24349-0.24275-0.24131 0.24061c-0.16605 0.16557-0.24666 0.24304-0.25847 0.24841-0.022054 0.010022-0.072112 0.012726-0.092747 0.00501z" stroke-width=".0042903"/>
</svg>
