<?xml version="1.0" encoding="UTF-8"?>
<!-- Created with Inkscape (http://www.inkscape.org/) -->
<svg width="48" height="48" version="1.1" viewBox="0 0 12.7 12.7" xmlns="http://www.w3.org/2000/svg">
 <path d="m5.1236 11.324c-1.1055-0.28575-2.0022-0.857-2.7156-1.7301-1.6296-1.9943-1.5363-4.8209 0.2211-6.6979 1.0083-1.0769 2.3022-1.6394 3.7708-1.6394 0.60959-1.28e-5 0.87081 0.04608 0.87081 0.15366 0 0.044269-0.033378 0.080492-0.074184 0.080492-0.13397 0-0.70183 0.5461-0.92189 0.88661-0.35005 0.5416-0.48287 1.0443-0.45653 1.7278 0.018955 0.49168 0.050448 0.64213 0.21508 1.0275 0.37747 0.88356 1.2303 1.5781 2.1495 1.7506 1.0821 0.20302 2.2639-0.25558 2.9251-1.1351 0.32327-0.43004 0.34493-0.39428 0.34655 0.57217 0.0016 0.99247-0.09584 1.4336-0.50459 2.2831-0.55708 1.1577-1.4815 2.0092-2.7717 2.553-0.064392 0.02714-0.32075 0.10264-0.56969 0.16779-0.609 0.15936-1.8678 0.15928-2.4848-1.75e-4zm2.218-1.0175c0.86349-0.22882 1.4358-0.56746 2.0072-1.1876 0.42949-0.46618 0.87937-1.2362 0.78019-1.3354-0.013284-0.013284-0.1811 0.018647-0.3729 0.070976-0.43144 0.11769-1.507 0.12966-1.9586 0.021789-0.89245-0.21315-1.7855-0.82779-2.3279-1.6021-0.26156-0.37339-0.55832-1.0779-0.6537-1.552-0.087501-0.43486-0.074221-1.1432 0.029862-1.5923 0.12326-0.53192 0.12449-0.55865 0.02479-0.53757-0.22379 0.047291-0.72213 0.33841-1.0688 0.62437-0.97544 0.80461-1.4999 1.9042-1.5049 3.1554-0.00277 0.68226 0.11236 1.152 0.44861 1.8306 0.58334 1.1775 1.6794 1.969 3.0324 2.1898 0.37902 0.06186 1.1698 0.01836 1.5638-0.08603z" stroke-width=".058542"/>
</svg>
