<?xml version="1.0" encoding="UTF-8"?>
<!-- Created with Inkscape (http://www.inkscape.org/) -->
<svg width="48" height="48" version="1.1" viewBox="0 0 12.7 12.7" xmlns="http://www.w3.org/2000/svg">
 <path d="m6.0709 12.454c-0.11343-0.11343-0.12361-0.15523-0.12361-0.50758 0-0.3456 0.011343-0.39462 0.11351-0.4906 0.16696-0.15685 0.43534-0.14617 0.58094 0.0231 0.1019 0.11846 0.11019 0.16393 0.095385 0.52312-0.014614 0.35464-0.027756 0.40225-0.13343 0.48343-0.16944 0.13017-0.38382 0.1175-0.5328-0.03147zm-3.9984-1.6108c-0.14216-0.05737-0.25143-0.23138-0.24968-0.39764 0.00168-0.16271 0.03356-0.20817 0.33766-0.48188 0.30809-0.2773 0.57703-0.26982 0.73158 0.020368 0.029997 0.05633 0.054541 0.14296 0.054541 0.19253 0 0.12501-0.29237 0.49578-0.48466 0.61462-0.17206 0.10634-0.23424 0.11464-0.38945 0.05201zm8.2118-8e-3c-0.15201-0.0837-0.4011-0.33366-0.47701-0.47868-0.14976-0.28608 0.037482-0.59211 0.36227-0.59211 0.21168 0 0.64584 0.42295 0.68485 0.66718 0.02463 0.15419 0.01 0.19162-0.12367 0.31648-0.15875 0.14829-0.28914 0.17374-0.44644 0.08713zm-4.8293-0.48721c-0.12894-0.034357-0.30828-0.081735-0.39853-0.10528-0.16785-0.043797-0.48645-0.19185-0.82051-0.3813-0.79124-0.4487-1.4668-1.2912-1.7752-2.2139-0.22409-0.6704-0.26599-1.6216-0.10003-2.2709 0.39744-1.555 1.6886-2.7629 3.2584-3.0482 1.2933-0.23509 2.5882 0.15816 3.557 1.0803 0.4721 0.44934 0.67957 0.76921 1.0357 1.5968 0.05187 0.12054 0.12814 0.44135 0.18876 0.79396 0.1581 0.91963-0.08488 1.9585-0.65917 2.8184-0.61423 0.91965-1.5243 1.5301-2.6125 1.7523-0.33707 0.06883-1.3845 0.05501-1.6739-0.0221zm1.82-0.86864c0.57399-0.16978 1.1756-0.55113 1.4978-0.94936 0.62944-0.77808 0.87056-1.4766 0.81822-2.3703-0.076077-1.299-0.8788-2.3843-2.1206-2.8671-0.49767-0.19348-1.3674-0.2501-1.8607-0.12114-1.1695 0.3057-1.9902 1.0756-2.3954 2.2474-0.13155 0.38037-0.14649 1.4773-0.024698 1.8136 0.23887 0.65976 0.41798 0.96741 0.79464 1.365 0.52527 0.55438 1.1096 0.85192 1.9631 0.99952 0.25605 0.04428 1.0044-0.022045 1.3277-0.11768zm-7.0203-2.8415c-0.10214-0.10214-0.12324-0.16154-0.11189-0.31495 0.011485-0.15518 0.042552-0.20826 0.17331-0.2961 0.27642-0.18569 0.85997-0.11443 0.98563 0.12036 0.088266 0.16493 0.05929 0.36072-0.072946 0.49297-0.11223 0.11223-0.15697 0.12361-0.48591 0.12361-0.33059 0-0.37332-0.011017-0.48819-0.12588zm11.261 0.061344c-0.25416-0.19302-0.24037-0.52589 0.02857-0.68988 0.28148-0.17164 0.84155-0.08908 0.96538 0.1423 0.08852 0.16539 0.05665 0.3744-0.07579 0.49714-0.10947 0.10145-0.166 0.1148-0.48059 0.11349-0.21974-9.252e-4 -0.38762-0.025106-0.43758-0.063048zm-9.1578-3.7981c-0.22411-0.099287-0.53716-0.48293-0.53592-0.65677 0.0015293-0.21772 0.13393-0.35864 0.36615-0.38979 0.19175-0.025722 0.20635-0.017976 0.47794 0.25362 0.31803 0.31803 0.35964 0.48227 0.17465 0.68931-0.13313 0.14899-0.29972 0.18475-0.48282 0.10363zm7.7151 0.026892c-0.23824-0.03554-0.37879-0.29293-0.28845-0.52826 0.053066-0.13824 0.41297-0.50073 0.53588-0.53974 0.18342-0.058212 0.39134 0.022236 0.47923 0.18543 0.11688 0.21703 0.06383 0.38231-0.20653 0.64337-0.23341 0.22539-0.32631 0.26811-0.52012 0.2392zm-3.9237-1.6034c-0.15802-0.063663-0.20233-0.19568-0.20233-0.60271 0-0.3471 0.00894-0.3818 0.12108-0.47001 0.17946-0.14116 0.28033-0.15904 0.43782-0.077596 0.20866 0.1079 0.24977 0.22292 0.23059 0.6452-0.014745 0.32471-0.031492 0.38572-0.12712 0.46315-0.11655 0.09438-0.29056 0.11025-0.46005 0.041963z" fill="#eaedee" stroke-width=".046886"/>
</svg>
