<?xml version="1.0" encoding="UTF-8"?>
<!-- Created with Inkscape (http://www.inkscape.org/) -->
<svg width="48" height="48" version="1.1" viewBox="0 0 12.7 12.7" xmlns="http://www.w3.org/2000/svg">
 <path d="m4.859 12.397c-1.344-0.3474-2.4342-1.0419-3.3015-2.1034-1.9812-2.4246-1.8678-5.8611 0.2688-8.143 1.2258-1.3092 2.7989-1.9931 4.5844-1.9931 0.74112-1.546e-5 1.0587 0.056022 1.0587 0.18681 0 0.053821-0.040579 0.097859-0.09019 0.097859-0.16288 0-0.85326 0.66393-1.1208 1.0779-0.42558 0.65845-0.58706 1.2696-0.55503 2.1006 0.023045 0.59776 0.061333 0.78068 0.26148 1.2492 0.45891 1.0742 1.4958 1.9186 2.6133 2.1283 1.3156 0.24682 2.7524-0.31072 3.5562-1.38 0.39302-0.52283 0.41935-0.47935 0.42132 0.69562 2e-3 1.2066-0.11652 1.7429-0.61346 2.7757-0.67728 1.4075-1.8012 2.4427-3.3697 3.1038-0.078285 0.033-0.38996 0.12479-0.69261 0.20399-0.7404 0.19375-2.2708 0.19364-3.0209-2.13e-4zm2.6966-1.237c1.0498-0.27819 1.7456-0.68989 2.4403-1.4438 0.52216-0.56676 1.0691-1.5029 0.94853-1.6235-0.016151-0.016152-0.22017 0.022672-0.45336 0.086288-0.52453 0.14308-1.8321 0.15763-2.3812 0.026492-1.085-0.25914-2.1708-1.0064-2.8302-1.9478-0.318-0.45395-0.67878-1.3105-0.79474-1.8868-0.10638-0.52868-0.090235-1.3898 0.036305-1.9359 0.14985-0.64669 0.15135-0.67918 0.030139-0.65356-0.27207 0.057495-0.87794 0.41143-1.2994 0.75909-1.1859 0.97821-1.8235 2.315-1.8296 3.8362-0.00337 0.82946 0.1366 1.4005 0.5454 2.2256 0.7092 1.4315 2.0417 2.3938 3.6867 2.6623 0.4608 0.07521 1.4222 0.02232 1.9012-0.10459z" stroke-width=".071171"/>
</svg>
