<?xml version="1.0" encoding="UTF-8"?>
<!-- Created with Inkscape (http://www.inkscape.org/) -->
<svg width="400" height="400" version="1.1" viewBox="0 0 105.83 105.83" xmlns="http://www.w3.org/2000/svg">
 <g>
  <g transform="matrix(1.029 0 0 1.029 -1.8647 3.1836)">
   <g stroke-linecap="round" stroke-linejoin="round">
    <path d="m22.046 7.3638c4.6396-0.91348 61.106-0.6719 67.997-0.71576 3.4356-0.021797 7.5051 0.49152 10.526 2.863 3.2716 2.5684 2.0476 27.439 1.5795 41.068-0.42934 12.501-0.0477 34.796-3.4796 37.362-4.7384 3.5433-18.624 1.4247-35.291 1.5729-16.667 0.14816-33.741 0.59972-42.3-0.17463-2.2317-0.20188-12.682-0.81846-15.41-5.5576-2.2923-3.9825-2.3397-56.277-1.3473-59.619 1.0842-3.6503 13.133-15.895 17.726-16.799z" fill="#8bfffe" stroke="#244a6f" stroke-width="2.0596"/>
    <path d="m5.3716 28.035c-0.24198-0.19594-0.2686-0.31053-0.24217-1.042 0.08597-2.3779 0.27815-2.9696 1.5343-4.7245 2.1009-2.9349 6.8978-7.8741 10.271-10.576 2.7009-2.1631 4.4209-3.1393 5.8485-3.3192 1.4967-0.18859 7.2037-0.36203 15.88-0.48261 11.686-0.1624 53.169-0.15499 54.512 0.00976 0.57335 0.070317 1.538 0.24788 2.1436 0.39459l1.1011 0.26673-2.2626 0.084679c-1.2445 0.046549-5.9067 0.21653-10.361 0.37768-17.318 0.62663-29.446 1.1809-32.63 1.4912-0.88133 0.08591-1.2296 0.16825-1.3397 0.31675-0.4343 0.58541-0.0042 0.8035 2.9312 1.4869 2.4722 0.57554 3.7664 0.9747 3.9092 1.2057 0.21374 0.34586-2.213 1.6598-6.1629 3.3368-4.1229 1.7505-11.643 4.7116-13.754 5.4155-3.9624 1.3215-7.2759 2.0234-8.9772 1.9017-1.089-0.07792-1.531-0.34525-4.4572-2.6963-3.6701-2.9487-4.425-3.397-5.7333-3.4046-0.71424-0.0042-0.95595 0.05397-1.6672 0.40122-0.69093 0.33731-1.1249 0.70047-2.5613 2.1436-0.9512 0.95559-2.6717 2.7824-3.8234 4.0596-2.4171 2.6806-3.33 3.5726-3.656 3.5726-0.12766 0-0.35445-0.09907-0.50398-0.22014z" fill="#fff" stroke="#fff" stroke-width=".35726"/>
    <path d="m44.737 77.239c-0.49027-0.10794-0.87824-0.30476-0.94537-0.47973-0.03814-0.09938-0.12092-1.0725-0.18423-2.1624-0.14972-2.585-0.14012-37.244 0.01038-41.221 0.12741-3.3435 0.35772-5.4783 0.6369-5.9043 0.23665-0.36102 1.6598-0.81389 3.5025-1.1145 4.6481-0.75831 11.228-0.58119 15.735 0.42356 6.3506 1.4159 10.031 4.1225 10.953 8.056 0.52989 2.259 0.60605 5.6094 0.18138 7.9783-0.678 3.7816-2.3742 7.1479-4.8335 9.5926-1.0417 1.0355-1.9229 1.655-2.7539 1.936-0.3462 0.11708-0.67964 0.29206-0.74095 0.38886-0.39395 0.6219 1.054 2.7511 7.0182 10.321 4.9139 6.2364 7.2926 9.478 8.0369 10.952l0.3572 0.70766-0.38611 0.05916c-1.7104 0.26177-5.2424 0.1396-6.0797-0.21018-0.31065-0.12974-1.6667-1.7443-5.9788-7.1186-8.9705-11.18-10.505-12.958-11.417-13.228-0.68065-0.20164-3.339-0.16412-4.7225 0.06666-1.4942 0.24926-2.6527 0.61485-3.0598 0.96556-0.323 0.27824-0.32853 0.30546-0.29617 1.4545 0.32337 11.476 0.19435 17.656-0.37838 18.131-0.38915 0.32295-3.7157 0.6131-4.6563 0.40614zm24.064-34.634c0.35248-1.3222 0.29926-3.7257-0.11288-5.0963-0.5262-1.7501-1.7646-3.8775-2.6504-4.5532-0.99548-0.75929-2.7093-1.3112-5.2245-1.6825-1.7818-0.26305-6.8497-0.22059-8.6457 0.01842-1.3942 0.18563-3.1257 1.3537-3.3676 1.8128-0.4764 0.90432-0.7809 1.7031-0.59122 9.4762 0.13363 5.5007 0.25702 6.706 0.68956 7.514 0.32552 0.60823 2.5684 0.5678 6.3186 0.45757 3.2942-0.09681 5.3588 0.29603 7.6513 0.2816 1.5939-0.16804 4.5482-3.3561 5.9328-8.2288z" fill="#4294b8" stroke="#4294b8" stroke-width=".35726"/>
   </g>
   <path d="m21.694 84.048s-0.69467-29.015-0.8336-43.526c-0.08228-8.5937-0.57997-22.918 1.1e-5 -25.782 0.32568-1.6084 2.6199-4.168 2.6199-4.168" fill="none" stroke="#244a6f" stroke-linecap="round" stroke-linejoin="round" stroke-width="2.0596"/>
   <path d="m27.529 32.781s-0.8336 18.399 2.6199 18.399c3.4535 0 4.049-13.159 4.049-13.159s-1.7863 0.4168-3.394-0.71452c-1.6077-1.1313-3.2749-4.5253-3.2749-4.5253z" fill="#fff"/>
   <path d="m27.804 28.33s-1.525 22.445 2.1894 22.736c3.9234 0.3076 4.1261-15.831 4.1261-15.831" fill="none" stroke="#4294b8" stroke-linecap="round" stroke-linejoin="round" stroke-width="2.0596"/>
   <path d="m74.687 14.918s0.53588 5.8948 2.2626 5.8352c1.7268-0.05953 2.8283-4.6742 2.8283-4.6742s-1.31 0.65497-2.4413 0.23818c-1.1313-0.4168-2.6497-1.3993-2.6497-1.3993z" fill="#fff"/>
   <path d="m74.75 12.373s-0.56217 8.1534 2.1473 8.2102c2.8862 0.06051 2.9893-6.3155 2.9893-6.3155" fill="none" stroke="#4294b8" stroke-linecap="round" stroke-linejoin="round" stroke-width="2.0596"/>
   <path d="m86.001 60.171s-0.2382 6.907 1.429 7.2643 3.2749-3.1558 3.2749-3.1558 0.62821 19.292 4.8826 19.292c2.084 0 3.0962-6.0139 3.0962-6.0139s-1.9054-0.05942-3.1558-1.8459c-1.2504-1.7863-4.4062-13.1-4.4062-13.1s-0.83361 1.0718-2.5008 0.11908c-1.6672-0.95269-2.6199-2.5604-2.6199-2.5604z" fill="#fff"/>
   <path d="m86.118 57.634s-0.793 9.2655 1.3052 9.7259c2.0991 0.46063 3.7893-6.3997 3.7893-6.3997s-0.58656 22.288 4.4209 22.694c2.3353 0.18916 3.2841-7.7471 3.2841-7.7471" fill="none" stroke="#4294b8" stroke-linecap="round" stroke-linejoin="round" stroke-width="2.0596"/>
   <path d="m18.542 88.026c-4.4326-0.52656-8.0775-1.5804-10.049-2.9055-0.65255-0.43859-1.5229-1.2782-1.7821-1.7191-0.79649-1.3548-1.3302-7.952-1.7337-21.431-0.13905-4.6445-0.19696-24.437-0.084878-29.009 0.10567-4.3108 0.16328-5.4027 0.26986-5.1146 0.074539 0.20149 0.48058 0.44108 0.74753 0.44108 0.28956 0 2.133-1.8776 5.7694-5.8766l0.33683-0.3704 0.91068 1.5164c1.1222 1.8685 2.3959 4.352 2.7486 5.359 0.60054 1.7149 0.32278 1.8716-3.0698 1.7324-1.0136-0.0416-1.2674 0.03379-1.3615 0.40445-0.10648 0.41956 0.16448 0.92534 2.612 4.8756 2.1287 3.4357 2.6597 4.5335 2.9149 6.0266 0.50522 2.9552 0.86004 8.9794 0.86892 14.752 0.0048 3.1026-0.0123 3.5244-0.21674 5.3471-0.29353 2.6174-0.61272 6.201-0.7838 8.7996-0.28757 4.368 0.02938 9.2506 0.76921 11.85 0.37912 1.3321 1.1298 2.8204 2.2616 4.4834 0.2827 0.41542 0.5443 0.80382 0.58134 0.86312 0.08651 0.13851-0.38984 0.13148-1.7094-0.02517z" fill="#4294b8" stroke="#4294b8" stroke-linecap="round" stroke-linejoin="round" stroke-width=".25262"/>
  </g>
 </g>
</svg>
