<?xml version="1.0" encoding="UTF-8" standalone="no"?>
<!-- Created with Inkscape (http://www.inkscape.org/) -->

<svg
   width="16"
   height="16"
   viewBox="0 0 4.2333333 4.2333333"
   version="1.1"
   id="svg5"
   inkscape:version="1.1.1 (c3084ef, 2021-09-22)"
   sodipodi:docname="icoCancel.svg"
   xmlns:inkscape="http://www.inkscape.org/namespaces/inkscape"
   xmlns:sodipodi="http://sodipodi.sourceforge.net/DTD/sodipodi-0.dtd"
   xmlns="http://www.w3.org/2000/svg"
   xmlns:svg="http://www.w3.org/2000/svg">
  <sodipodi:namedview
     id="namedview7"
     pagecolor="#505050"
     bordercolor="#eeeeee"
     borderopacity="1"
     inkscape:pageshadow="0"
     inkscape:pageopacity="0"
     inkscape:pagecheckerboard="0"
     inkscape:document-units="mm"
     showgrid="false"
     units="px"
     inkscape:snap-page="true"
     inkscape:zoom="32.612346"
     inkscape:cx="5.7033615"
     inkscape:cy="9.4442761"
     inkscape:window-width="1312"
     inkscape:window-height="794"
     inkscape:window-x="0"
     inkscape:window-y="25"
     inkscape:window-maximized="0"
     inkscape:current-layer="layer1" />
  <defs
     id="defs2" />
  <g
     inkscape:label="Layer 1"
     inkscape:groupmode="layer"
     id="layer1">
    <path
       style="fill:#000000;stroke-width:0.00429031;fill-opacity:1"
       d="M 2.0097245,4.2158918 C 1.5884499,4.1933577 1.1879031,4.0478699 0.8534878,3.7959196 0.68806201,3.6712871 0.53591245,3.5163337 0.4134858,3.3478097 0.02309328,2.8104218 -0.08868244,2.1065882 0.11573915,1.4729467 0.22228768,1.1426798 0.39833471,0.85935074 0.65028722,0.61264702 0.85464302,0.41254879 1.0877848,0.26176185 1.3533081,0.15796096 1.9849935,-0.08898319 2.7047727,-0.01318286 3.2716343,0.35998169 3.4541025,0.4801005 3.627003,0.63850572 3.765277,0.81223994 4.1337032,1.2751479 4.2872265,1.874771 4.1889936,2.4671681 4.0535452,3.2839954 3.4365642,3.9525044 2.6318186,4.1543926 2.4315621,4.2046312 2.2095408,4.2265798 2.0097245,4.2158918 Z M 2.2993202,3.7276875 C 2.5003489,3.7035976 2.6751116,3.6511151 2.8506243,3.5621251 3.3071381,3.3306595 3.6308419,2.8916255 3.7149144,2.3899039 c 0.017413,-0.103921 0.021372,-0.1545565 0.021372,-0.2734116 0,-0.1188553 -0.00395,-0.1694906 -0.021372,-0.2734119 C 3.6020206,1.1693605 3.0646079,0.63176821 2.3909002,0.51862376 2.2880835,0.50135645 2.2321118,0.49692184 2.1169821,0.49692184 c -0.1149832,0 -0.1711205,0.004436 -0.2734116,0.0216159 C 1.1696106,0.63171622 0.63198519,1.1691802 0.51913581,1.842574 c -0.0175043,0.1044508 -0.0214578,0.1549186 -0.0214578,0.273918 0,0.1189993 0.003955,0.1694669 0.0214578,0.2739177 0.10552596,0.6296948 0.58450109,1.1458736 1.20528379,1.2989031 0.095716,0.023595 0.1719699,0.035453 0.298176,0.04637 0.04161,0.0036 0.2239215,-0.00167 0.2767246,-0.008 z M 1.5244152,2.9774711 c -0.00854,-0.00319 -0.022051,-0.00988 -0.030032,-0.014856 -0.025458,-0.015875 -0.2207782,-0.215839 -0.2312751,-0.2367743 -0.013162,-0.026249 -0.015755,-0.064796 -0.00652,-0.096968 0.00727,-0.025334 0.00824,-0.026374 0.2503856,-0.2689431 L 1.7500592,2.1164189 1.5113199,1.8772708 C 1.3428786,1.7085407 1.2697489,1.6324378 1.2629626,1.618816 1.2485806,1.589946 1.2470496,1.550287 1.2590826,1.5179941 c 0.00879,-0.023628 0.01838,-0.0346 0.1167151,-0.1336359 0.071461,-0.07197 0.1142852,-0.111788 0.1286183,-0.1195892 0.028312,-0.015409 0.065501,-0.018627 0.1001924,-0.00867 0.025334,0.00728 0.026375,0.00824 0.2689067,0.2503494 L 2.1169815,1.7494961 2.3604564,1.5066163 C 2.5900837,1.2775501 2.6052449,1.2633112 2.6270292,1.2562575 c 0.030159,-0.00977 0.072544,-0.00707 0.099176,0.00629 0.026805,0.01345 0.226858,0.2126359 0.2425852,0.2415321 0.015546,0.028563 0.018657,0.066201 0.00829,0.1003214 -0.00751,0.024733 -0.011629,0.029148 -0.2503726,0.2686203 L 2.4839759,2.1164915 2.7270274,2.3599661 c 0.2421106,0.2425323 0.2430797,0.2435734 0.2503496,0.2689068 0.00993,0.034612 0.00674,0.071888 -0.00859,0.1000347 -0.015678,0.028807 -0.2157829,0.228086 -0.2424589,0.2414592 -0.026701,0.013387 -0.065505,0.015871 -0.097254,0.00622 C 2.6043411,2.9690768 2.5999261,2.9649578 2.360436,2.7261967 L 2.1169457,2.4834508 1.8756339,2.7240589 C 1.7095831,2.8896254 1.6289697,2.9670995 1.6171608,2.9724664 c -0.022054,0.010022 -0.072112,0.012726 -0.092747,0.00501 z"
       id="path836" />
  </g>
</svg>
