<?xml version="1.0" encoding="UTF-8" standalone="no"?>
<!-- Created with Inkscape (http://www.inkscape.org/) -->

<svg
   width="400"
   height="400"
   viewBox="0 0 105.83333 105.83334"
   version="1.1"
   id="svg5"
   sodipodi:docname="logo.svg"
   xmlns:sodipodi="http://sodipodi.sourceforge.net/DTD/sodipodi-0.dtd"
   xmlns="http://www.w3.org/2000/svg"
   xmlns:svg="http://www.w3.org/2000/svg">
  <sodipodi:namedview
     id="namedview7"
     pagecolor="#505050"
     bordercolor="#eeeeee"
     borderopacity="1"
     inkscape:pageshadow="0"
     inkscape:pageopacity="0"
     inkscape:pagecheckerboard="0"
     inkscape:document-units="mm"
     showgrid="false"
     units="px"
     inkscape:zoom="0.72063784"
     inkscape:cx="3.469149"
     inkscape:cy="200.51681"
     inkscape:window-width="1920"
     inkscape:window-height="1027"
     inkscape:window-x="1440"
     inkscape:window-y="25"
     inkscape:window-maximized="1"
     inkscape:current-layer="layer1" />
  <defs
     id="defs2" />
  <g
     inkscape:label="Layer 1"
     inkscape:groupmode="layer"
     id="layer1"
     style="display:inline">
    <g
       id="g82312"
       transform="matrix(1.0290472,0,0,1.0290472,-1.8646566,3.1835789)">
      <path
         style="display:inline;fill:#8bfffe;fill-opacity:1;stroke:#244a6f;stroke-width:2.05964;stroke-linecap:round;stroke-linejoin:round;stroke-miterlimit:4;stroke-dasharray:none;stroke-opacity:1"
         d="m 22.0462,7.3638448 c 4.639586,-0.9134765 61.105885,-0.6718984 67.997139,-0.7157587 3.435598,-0.021797 7.505138,0.4915192 10.525851,2.8630348 3.27155,2.5684261 2.0476,27.4386011 1.57952,41.0676311 -0.42934,12.500596 -0.0477,34.795864 -3.479633,37.362249 C 93.930722,91.484336 80.044991,89.36574 63.378258,89.513879 46.71158,89.662043 29.637325,90.113594 21.077825,89.339247 18.846139,89.13737 8.3958227,88.520788 5.6679419,83.781602 3.3756177,79.799119 3.3281947,27.504477 4.3206265,24.163014 5.4047982,20.512668 17.453435,8.2679721 22.0462,7.363715 Z"
         id="path869"
         sodipodi:nodetypes="sssssssssss" />
      <path
         style="display:inline;fill:#ffffff;fill-opacity:1;stroke:#ffffff;stroke-width:0.35726;stroke-linecap:round;stroke-linejoin:round;stroke-miterlimit:4;stroke-dasharray:none;stroke-opacity:1"
         d="M 5.3715819,28.035398 C 5.1296016,27.839458 5.1029772,27.724866 5.1294161,26.99339 c 0.08597,-2.377875 0.2781477,-2.969625 1.534316,-4.72446 2.1008544,-2.934857 6.8977929,-7.874062 10.2711009,-10.575727 2.700896,-2.1631384 4.420889,-3.139271 5.848528,-3.31916 1.496681,-0.1885865 7.203692,-0.36203 15.880265,-0.4826083 11.685596,-0.1623971 53.169321,-0.154994 54.512391,0.00976 0.57335,0.070317 1.537955,0.2478835 2.143558,0.394586 l 1.101098,0.2667305 -2.262645,0.084679 c -1.244456,0.046549 -5.9067,0.2165303 -10.360543,0.3776833 -17.317979,0.6266252 -29.446444,1.1809225 -32.629755,1.4912485 -0.881334,0.08591 -1.22956,0.168246 -1.339723,0.316753 -0.434295,0.585411 -0.0042,0.8035 2.93116,1.486902 2.472228,0.57554 3.766438,0.974698 3.909171,1.205652 0.213736,0.345855 -2.213011,1.659797 -6.162872,3.336804 -4.122894,1.750474 -11.64331,4.71156 -13.754147,5.415546 -3.962399,1.321499 -7.275929,2.02343 -8.977191,1.901707 -1.08905,-0.07792 -1.530967,-0.345252 -4.45723,-2.696297 -3.670102,-2.948658 -4.425035,-3.396958 -5.733347,-3.404629 -0.714236,-0.0042 -0.955948,0.05397 -1.667218,0.401225 -0.690934,0.337314 -1.124873,0.70047 -2.561335,2.143558 -0.951204,0.955593 -2.671746,2.782432 -3.8234286,4.059635 -2.4171123,2.680554 -3.3299795,3.572599 -3.6560071,3.572599 -0.1276576,0 -0.3544503,-0.09907 -0.5039804,-0.220144 z"
         id="path61627" />
      <path
         style="display:inline;fill:#4294b8;fill-opacity:1;stroke:#4294b8;stroke-width:0.35726;stroke-linecap:round;stroke-linejoin:round;stroke-miterlimit:4;stroke-dasharray:none;stroke-opacity:1"
         d="m 44.737047,77.239222 c -0.490266,-0.107945 -0.878244,-0.304762 -0.945372,-0.479731 -0.03814,-0.09938 -0.120919,-1.072492 -0.184233,-2.162448 -0.149721,-2.584989 -0.14012,-37.244132 0.01038,-41.220771 0.127406,-3.343532 0.357723,-5.47828 0.6369,-5.904324 0.236648,-0.361015 1.659753,-0.813887 3.502519,-1.114526 4.648081,-0.758314 11.227956,-0.581191 15.734542,0.423558 6.350623,1.415879 10.030627,4.122474 10.953321,8.056045 0.529889,2.259022 0.606047,5.60937 0.181378,7.978267 -0.678002,3.781597 -2.374212,7.147903 -4.833508,9.592627 -1.041691,1.035526 -1.922868,1.654983 -2.753912,1.936016 -0.346201,0.117078 -0.679636,0.292063 -0.740952,0.38886 -0.393946,0.621901 1.053992,2.751123 7.018194,10.320539 4.913869,6.236373 7.292621,9.478034 8.036868,10.952387 l 0.357204,0.70766 -0.38611,0.05916 C 79.613861,77.034309 76.081839,76.912145 75.244542,76.562362 74.93389,76.432621 73.577887,74.818044 69.265705,69.443776 60.295193,58.263813 58.760329,56.485409 57.848923,56.215389 c -0.680648,-0.201644 -3.339019,-0.164123 -4.722475,0.06666 -1.494151,0.249259 -2.652688,0.614846 -3.059842,0.96556 -0.323003,0.278245 -0.32853,0.305465 -0.296173,1.454546 0.323367,11.476474 0.194353,17.65563 -0.378377,18.131002 -0.389146,0.322952 -3.715709,0.613105 -4.656255,0.406142 z M 68.801388,42.605257 c 0.35248,-1.322213 0.299261,-3.725663 -0.112875,-5.096267 -0.526205,-1.750084 -1.764584,-3.877549 -2.650353,-4.553152 -0.995478,-0.759287 -2.709281,-1.311222 -5.224469,-1.682549 -1.781762,-0.26305 -6.849686,-0.220586 -8.645745,0.01842 -1.394154,0.185633 -3.125734,1.353688 -3.367611,1.812826 -0.476396,0.904317 -0.780899,1.703089 -0.591217,9.476176 0.133633,5.500738 0.257017,6.706023 0.689556,7.514046 0.32552,0.608226 2.568359,0.567804 6.318579,0.457574 3.29418,-0.09681 5.35883,0.296033 7.65133,0.281598 1.593948,-0.168041 4.548155,-3.356111 5.932805,-8.228759 z"
         id="path80478"
         sodipodi:nodetypes="cscccssscssssscsssssscscccssssscsscc" />
      <path
         style="fill:none;stroke:#244a6f;stroke-width:2.05964;stroke-linecap:round;stroke-linejoin:round;stroke-miterlimit:4;stroke-dasharray:none;stroke-opacity:1"
         d="m 21.693771,84.047676 c 0,0 -0.694668,-29.015472 -0.833605,-43.5262 -0.08228,-8.593697 -0.579966,-22.91807 1.1e-5,-25.782271 0.325681,-1.608375 2.61991,-4.168034 2.61991,-4.168034"
         id="path4045"
         sodipodi:nodetypes="cssc" />
      <path
         style="fill:#ffffff;fill-opacity:1;stroke:none;stroke-width:0.686546px;stroke-linecap:butt;stroke-linejoin:miter;stroke-opacity:1"
         d="m 27.529023,32.780838 c 0,0 -0.833605,18.398896 2.619903,18.398896 3.453518,0 4.048955,-13.159081 4.048955,-13.159081 0,0 -1.7863,0.416804 -3.393975,-0.714516 -1.607672,-1.131327 -3.274883,-4.525299 -3.274883,-4.525299 z"
         id="path61877" />
      <path
         style="fill:none;stroke:#4294b8;stroke-width:2.05964;stroke-linecap:round;stroke-linejoin:round;stroke-miterlimit:4;stroke-dasharray:none;stroke-opacity:1"
         d="m 27.804492,28.330077 c 0,0 -1.524975,22.444688 2.189385,22.735898 3.923449,0.307603 4.126141,-15.830925 4.126141,-15.830925"
         id="path6192"
         sodipodi:nodetypes="csc" />
      <path
         style="fill:#ffffff;fill-opacity:1;stroke:none;stroke-width:0.686546px;stroke-linecap:butt;stroke-linejoin:miter;stroke-opacity:1"
         d="m 74.687355,14.917838 c 0,0 0.535883,5.894789 2.262635,5.835246 1.726777,-0.05953 2.828331,-4.674151 2.828331,-4.674151 0,0 -1.309971,0.654972 -2.441288,0.238179 -1.131317,-0.416804 -2.649678,-1.399266 -2.649678,-1.399266 z"
         id="path62404" />
      <path
         style="fill:none;stroke:#4294b8;stroke-width:2.05964;stroke-linecap:round;stroke-linejoin:round;stroke-miterlimit:4;stroke-dasharray:none;stroke-opacity:1"
         d="m 74.749917,12.372848 c 0,0 -0.562169,8.153378 2.147268,8.210184 2.886196,0.06051 2.98934,-6.315527 2.98934,-6.315527"
         id="path6388"
         sodipodi:nodetypes="csc" />
      <path
         style="fill:#ffffff;fill-opacity:1;stroke:none;stroke-width:0.686546px;stroke-linecap:butt;stroke-linejoin:miter;stroke-opacity:1"
         d="m 86.000604,60.170782 c 0,0 -0.238205,6.907034 1.429021,7.264289 1.667226,0.357255 3.274901,-3.155799 3.274901,-3.155799 0,0 0.628207,19.29202 4.88255,19.292046 2.084006,0 3.096247,-6.013867 3.096247,-6.013867 0,0 -1.905379,-0.05942 -3.155799,-1.845853 -1.250419,-1.786303 -4.406192,-13.099536 -4.406192,-13.099536 0,0 -0.833613,1.071774 -2.500839,0.119077 -1.6672,-0.952693 -2.619889,-2.56036 -2.619889,-2.560357 z"
         id="path61879"
         sodipodi:nodetypes="cscscscsc" />
      <path
         style="fill:none;stroke:#4294b8;stroke-width:2.05964;stroke-linecap:round;stroke-linejoin:round;stroke-miterlimit:4;stroke-dasharray:none;stroke-opacity:1"
         d="m 86.117838,57.634114 c 0,0 -0.793004,9.265489 1.305222,9.725915 2.099135,0.460633 3.789299,-6.399733 3.789299,-6.399733 0,0 -0.58656,22.287914 4.420878,22.693797 2.335264,0.189162 3.284087,-7.747053 3.284087,-7.747053"
         id="path6812"
         sodipodi:nodetypes="cscsc" />
      <path
         style="fill:#4294b8;fill-opacity:1;stroke:#4294b8;stroke-width:0.252621;stroke-linecap:round;stroke-linejoin:round;stroke-miterlimit:4;stroke-dasharray:none;stroke-opacity:1"
         d="M 18.541724,88.026061 C 14.109156,87.499502 10.464209,86.445617 8.4927414,85.120534 7.8401921,84.681941 6.9698221,83.842355 6.7106232,83.401461 5.9141325,82.046628 5.3804245,75.44944 4.9768929,61.97078 4.8378464,57.326324 4.7799294,37.53368 4.8920152,32.961461 4.9976816,28.650675 5.055297,27.558789 5.161876,27.8469 c 0.074539,0.201488 0.4805761,0.441079 0.7475331,0.441079 0.2895649,0 2.1329644,-1.87763 5.7694389,-5.87657 l 0.336834,-0.370398 0.910684,1.516363 c 1.122161,1.868507 2.395905,4.351994 2.748564,5.359047 0.600536,1.714886 0.32278,1.871631 -3.069799,1.732367 -1.01357,-0.0416 -1.26738,0.03379 -1.361451,0.40445 -0.106476,0.419562 0.164484,0.925342 2.611976,4.875569 2.128693,3.435687 2.659697,4.533525 2.914941,6.026558 0.505223,2.955234 0.860044,8.979377 0.868921,14.752475 0.0048,3.102609 -0.0123,3.524362 -0.216743,5.347145 -0.293526,2.617364 -0.612722,6.200953 -0.783803,8.799638 -0.287567,4.36799 0.02938,9.250644 0.769207,11.850185 0.379125,1.332128 1.129844,2.82037 2.261582,4.483414 0.2827,0.415415 0.544302,0.803821 0.581341,0.863118 0.08651,0.138512 -0.389835,0.13148 -1.709379,-0.02517 z"
         id="path64053" />
    </g>
  </g>
</svg>
